<?xml version="1.0" encoding="utf-8"?>
<!-- Generator: Adobe Illustrator 16.0.3, SVG Export Plug-In . SVG Version: 6.00 Build 0)  -->
<!DOCTYPE svg PUBLIC "-//W3C//DTD SVG 1.1//EN" "http://www.w3.org/Graphics/SVG/1.1/DTD/svg11.dtd">
<svg xmlns="http://www.w3.org/2000/svg" xmlns:xlink="http://www.w3.org/1999/xlink" version="1.1" id="Warstwa_1" x="0px" y="0px" width="650px" height="300px" viewBox="0 0 650 300" xml:space="preserve">
<polyline fill="#D8DB32" points="0,300 0,0 650,0 650,300 "/>
<path opacity="0.2" fill="#FFFFFF" d="M463.937,119.259H342.648V15.217c0-5.16-4.194-9.364-9.345-9.364h-14.957  c-5.165,0-9.364,4.209-9.364,9.364v104.042H187.71c-5.155,0-9.35,4.208-9.35,9.363v2.493c-0.877,0.637-1.453,1.662-1.453,2.827  c0,1.165,0.575,2.191,1.453,2.83v8.151c0,5.165,4.195,9.373,9.35,9.373h7.12l17.828,117.813c1.24,8.151,8.673,14.542,16.917,14.542  h192.532c8.253,0,15.682-6.391,16.912-14.552l17.791-117.803h7.125c5.154,0,9.347-4.208,9.347-9.373v-16.3  C473.283,123.458,469.091,119.259,463.937,119.259z M403.825,167.973v96.522c0,1.29-1.062,2.352-2.365,2.352h-4.826  c-1.289,0-2.342-1.053-2.342-2.352v-96.522c0-1.298,1.053-2.359,2.342-2.359h4.826C402.764,165.613,403.825,166.675,403.825,167.973  z M367.186,167.973v96.522c0,1.29-1.056,2.352-2.345,2.352h-4.821c-1.304,0-2.355-1.053-2.355-2.352v-96.522  c0-1.298,1.052-2.359,2.355-2.359h4.821C366.13,165.613,367.186,166.675,367.186,167.973z M330.558,167.973v96.522  c0,1.29-1.057,2.352-2.347,2.352h-4.826c-1.298,0-2.35-1.053-2.35-2.352v-96.522c0-1.298,1.052-2.359,2.35-2.359h4.826  C329.501,165.613,330.558,166.675,330.558,167.973z M293.918,167.973v96.522c0,1.29-1.046,2.352-2.35,2.352h-4.821  c-1.293,0-2.346-1.053-2.346-2.352v-96.522c0-1.298,1.052-2.359,2.346-2.359h4.821C292.872,165.613,293.918,166.675,293.918,167.973  z M257.3,167.973v96.522c0,1.29-1.052,2.352-2.336,2.352h-4.837c-1.298,0-2.345-1.053-2.345-2.352v-96.522  c0-1.298,1.047-2.359,2.345-2.359h4.837C256.243,165.613,257.3,166.675,257.3,167.973z"/>
<g>
	<rect x="71.833" y="256.712" fill="#414042" width="506.333" height="2.249"/>
</g>
<g>
	
		<rect x="214.96" y="204.715" transform="matrix(-0.9865 0.1639 -0.1639 -0.9865 488.8846 413.2889)" fill="#AEEA00" width="24.863" height="44.197"/>
	<g>
		<path fill="#414042" d="M244.63,246.351l-25.887,4.301l-7.469-44.96l25.887-4.301L244.63,246.351z M219.881,249.063l23.161-3.85    l-7.017-42.233l-23.163,3.847L219.881,249.063z"/>
	</g>
	<g>
		<path fill="#414042" d="M239.637,241.578l-17.712,2.943l-5.658-34.06l17.712-2.944L239.637,241.578z M223.062,242.934l14.986-2.49    l-5.205-31.338l-14.987,2.489L223.062,242.934z"/>
	</g>
	<rect x="219.459" y="207.14" fill="#AEEA00" width="23.519" height="43.903"/>
	<g>
		<path fill="#414042" d="M244.546,251.043h-25.087v-45.469h25.087V251.043z M219.459,249.475h23.519V207.14h-23.519V249.475z"/>
	</g>
	<g>
		<path fill="#414042" d="M241.41,244.77h-18.815v-34.494h18.815V244.77z M224.162,243.201h15.681v-31.358h-15.681V243.201z"/>
	</g>
	<path fill="#FF6E40" d="M247.682,253.366c0,2.315-1.512,3.947-3.456,3.947h-46.821c-1.945,0-3.032-1.632-3.032-3.947V227.22   c0-2.314,1.087-4.399,3.032-4.399h46.822c1.944,0,3.456,2.085,3.456,4.399L247.682,253.366L247.682,253.366z"/>
	<g>
		<path fill="#414042" d="M244.226,258.882h-46.705c-2.496,0-4.717-3.013-4.717-5.39v-26.346c0-2.305,2.204-4.326,4.717-4.326    h46.705c2.197,0,3.456,1.577,3.456,4.326v26.346C247.682,256.174,246.612,258.882,244.226,258.882z M197.521,224.387    c-1.487,0-3.149,1.182-3.149,2.76v26.346c0,1.579,1.629,3.821,3.149,3.821h46.705c1.385,0,1.889-2.286,1.889-3.821v-26.346    c0-2.76-1.373-2.76-1.889-2.76H197.521z"/>
	</g>
	<g>
		<path fill="#414042" d="M241.601,255.746h-4.895c-0.433,0-0.784-0.352-0.784-0.784c0-0.434,0.352-0.783,0.784-0.783h4.895    c0.873,0,1.377-0.544,1.377-3.312v-7.666c0-0.433,0.351-0.783,0.784-0.783c0.435,0,0.784,0.351,0.784,0.783v7.666    C244.546,252.327,244.546,255.746,241.601,255.746z"/>
	</g>
	<g>
		<path fill="#414042" d="M243.762,240.85c-0.434,0-0.784-0.35-0.784-0.783v-6.271c0-0.434,0.351-0.784,0.784-0.784    c0.435,0,0.784,0.351,0.784,0.784v6.271C244.546,240.5,244.196,240.85,243.762,240.85z"/>
	</g>
	<rect x="202.212" y="238.498" fill="#FFAB00" width="7.839" height="4.703"/>
	<g>
		<path fill="#FFFFFF" d="M223.979,236.984c0-2.609,1.434-4.869,3.538-6.093c-1.047-0.609-2.242-0.984-3.538-0.984    c-3.911,0-7.079,3.171-7.079,7.077c0,3.912,3.168,7.078,7.079,7.078c1.296,0,2.491-0.374,3.538-0.982    C225.411,241.857,223.979,239.598,223.979,236.984z"/>
		<path fill="#FFC400" d="M232.818,229.907c-1.296,0-2.493,0.375-3.538,0.984c-2.11,1.224-3.54,3.483-3.54,6.093    c0,2.615,1.43,4.873,3.54,6.096c1.045,0.608,2.242,0.982,3.538,0.982c3.908,0,7.078-3.166,7.078-7.078    C239.896,233.078,236.727,229.907,232.818,229.907z"/>
	</g>
	<g>
		<path fill="#FFFFFF" d="M235.934,249.475h-34.129c-0.362,0-0.658-0.423-0.658-0.785c0-0.365,0.295-0.783,0.658-0.783h34.129    c0.362,0,0.656,0.418,0.656,0.783C236.59,249.052,236.296,249.475,235.934,249.475z"/>
	</g>
</g>
<g>
	<g>
		<rect x="266.599" y="88.144" fill="#FFFFFF" width="122.828" height="169.289"/>
		<rect x="266.599" y="88.144" fill="#E6E7E8" width="122.828" height="22.746"/>
		<g>
			<path fill="#414042" d="M393.977,257.433H266.598V83.595h127.378V257.433z M271.146,252.883h118.279V88.144H271.146V252.883z"/>
		</g>
		<rect x="284.795" y="151.898" fill="#FFD740" width="95.533" height="36.393"/>
		<rect x="284.795" y="197.391" fill="#FF6E40" width="27.293" height="32.746"/>
		<rect x="318.913" y="197.391" fill="#00E5FF" width="27.295" height="32.746"/>
		<rect x="353.033" y="197.391" fill="#AEEA00" width="27.295" height="32.746"/>
		<g>
			<path fill="#414042" d="M353.033,243.784h-40.944c-1.258,0-2.277-1.017-2.277-2.274c0-1.256,1.019-2.275,2.277-2.275h40.944     c1.257,0,2.274,1.02,2.274,2.275C355.31,242.766,354.29,243.784,353.033,243.784z"/>
		</g>
	</g>
	<g>
		<polygon fill="#E6633A" points="289.9,132.91 278.196,132.91 267.25,147.32 281.254,147.32   "/>
		<polygon fill="#E6E7E8" points="301.606,132.91 289.9,132.91 281.254,147.32 295.267,147.32   "/>
		<polygon fill="#E6E7E8" points="360.381,133.752 372.087,133.752 380.47,148.164 366.455,148.164   "/>
		<polygon fill="#E6633A" points="313.311,132.91 301.606,132.91 295.267,147.32 309.286,147.32   "/>
		<polygon fill="#E6E7E8" points="325.03,132.91 313.311,132.91 309.286,147.32 323.288,147.32   "/>
		<polygon fill="#E6633A" points="336.733,132.91 325.03,132.91 323.288,147.32 337.306,147.32   "/>
		<polygon fill="#E6E7E8" points="348.431,132.91 336.733,132.91 337.306,147.32 351.33,147.32   "/>
		<polygon fill="#E6633A" points="360.136,132.91 348.431,132.91 351.33,147.32 365.323,147.32   "/>
		<polygon fill="#E6633A" points="383.555,132.91 371.845,132.91 379.338,147.32 393.354,147.32   "/>
		<polygon fill="#E6E7E8" points="395.267,132.91 383.555,132.91 393.354,147.32 407.359,147.32   "/>
		<polygon fill="#E6E7E8" points="278.196,132.91 266.493,132.91 253.243,147.32 267.25,147.32   "/>
		<path fill="#FFFFFF" d="M267.242,154.188c-3.867,2.846-10.145,2.846-14.001,0c0-2.531,0-5.053,0-7.586c4.656,0,9.328,0,14.001,0    C267.242,149.135,267.242,151.656,267.242,154.188z"/>
		<path fill="#FF6E40" d="M281.254,154.188c-3.855,2.846-10.137,2.846-14.004,0c0-2.531,0-5.053,0-7.586c4.667,0,9.35,0,14.004,0    C281.254,149.135,281.254,151.656,281.254,154.188z"/>
		<path fill="#FFFFFF" d="M295.267,154.188c-3.875,2.846-10.138,2.846-14.013,0c0-2.531,0-5.053,0-7.586c4.671,0,9.334,0,14.013,0    C295.267,149.135,295.267,151.656,295.267,154.188z"/>
		<path fill="#FF6E40" d="M309.286,154.188c-3.872,2.846-10.143,2.846-14.018,0c0-2.531,0-5.053,0-7.586c4.665,0,9.346,0,14.018,0    C309.286,149.135,309.286,151.656,309.286,154.188z"/>
		<path fill="#FFFFFF" d="M323.286,154.188c-3.862,2.846-10.138,2.846-14.005,0c0-2.531,0-5.053,0-7.586c4.663,0,9.339,0,14.005,0    C323.286,149.135,323.286,151.656,323.286,154.188z"/>
		<path fill="#FF6E40" d="M337.306,154.188c-3.868,2.846-10.146,2.846-14.018,0c0-2.531,0-5.053,0-7.586c4.67,0,9.336,0,14.018,0    C337.306,149.135,337.306,151.656,337.306,154.188z"/>
		<path fill="#FFFFFF" d="M351.308,154.188c-3.864,2.846-10.143,2.846-14.002,0c0-2.531,0-5.053,0-7.586c4.663,0,9.344,0,14.002,0    C351.308,149.135,351.308,151.656,351.308,154.188z"/>
		<path fill="#FF6E40" d="M365.323,154.188c-3.866,2.846-10.146,2.846-14.016,0c0-2.531,0-5.053,0-7.586c4.681,0,9.347,0,14.016,0    C365.323,149.135,365.323,151.656,365.323,154.188z"/>
		<path fill="#FFFFFF" d="M379.338,154.188c-3.872,2.846-10.142,2.846-14.014,0c0-2.531,0-5.053,0-7.586c4.681,0,9.34,0,14.014,0    C379.338,149.135,379.338,151.656,379.338,154.188z"/>
		<path fill="#FF6E40" d="M393.348,154.188c-3.867,2.846-10.146,2.846-14.01,0c0-2.531,0-5.053,0-7.586c4.66,0,9.341,0,14.01,0    C393.348,149.135,393.348,151.656,393.348,154.188z"/>
		<path fill="#FFFFFF" d="M407.35,154.188c-3.86,2.846-10.136,2.846-14.002,0c0-2.531,0-5.053,0-7.586c4.669,0,9.344,0,14.002,0    C407.35,149.135,407.35,151.656,407.35,154.188z"/>
		<g>
			<path fill="#414042" d="M260.237,157.654c-0.001,0-0.006,0-0.006,0c-3.131,0-6.07-0.9-8.277-2.529l-0.528-0.39v-8.134h3.626     v7.002c1.448,0.898,3.264,1.388,5.179,1.388c0.004,0,0.004,0,0.006,0c1.923,0,3.739-0.489,5.194-1.388v-7.002h3.625v8.137     l-0.532,0.391C266.312,156.758,263.368,157.654,260.237,157.654z"/>
		</g>
		<g>
			<path fill="#414042" d="M274.255,157.654c-3.129,0-6.074-0.896-8.288-2.525l-0.53-0.391v-8.137h3.624v7.002     c1.456,0.898,3.275,1.388,5.194,1.388c0.003,0,0.008,0,0.011,0c1.914,0,3.726-0.489,5.173-1.388v-7.002h3.626v8.134l-0.528,0.39     c-2.204,1.629-5.14,2.527-8.269,2.529C274.267,157.654,274.259,157.654,274.255,157.654z"/>
		</g>
		<g>
			<path fill="#414042" d="M288.262,157.646c-3,0-6.003-0.837-8.29-2.518l-0.532-0.391v-8.137h3.626v7     c2.909,1.797,7.479,1.803,10.39,0v-7h3.624v8.137l-0.53,0.391C294.261,156.81,291.261,157.646,288.262,157.646z"/>
		</g>
		<g>
			<path fill="#414042" d="M302.277,157.654c-3.131,0-6.075-0.896-8.292-2.525l-0.529-0.391v-8.137h3.623v7     c2.92,1.803,7.487,1.795,10.393,0.002v-7.002h3.626v8.137l-0.533,0.391C308.35,156.758,305.409,157.654,302.277,157.654z"/>
		</g>
		<g>
			<path fill="#414042" d="M316.283,157.654c-3.128,0-6.075-0.896-8.286-2.525l-0.528-0.391v-8.137h3.626v7.002     c1.449,0.898,3.27,1.388,5.188,1.388c0.002,0,0.002,0,0.002,0c1.92,0,3.736-0.489,5.188-1.388v-7.002h3.623v8.137l-0.528,0.387     c-2.209,1.633-5.148,2.529-8.282,2.529C316.285,157.654,316.285,157.654,316.283,157.654z"/>
		</g>
		<g>
			<path fill="#414042" d="M330.296,157.654c-3.131,0-6.074-0.896-8.287-2.525l-0.532-0.391v-8.137h3.624v7.002     c1.456,0.898,3.273,1.388,5.195,1.388c0.005,0,0.005,0,0.005,0c1.923,0,3.737-0.489,5.191-1.388v-7.002h3.624v8.137l-0.528,0.391     c-2.214,1.629-5.153,2.525-8.287,2.525C330.301,157.654,330.301,157.654,330.296,157.654z"/>
		</g>
		<g>
			<path fill="#414042" d="M344.305,157.654H344.3c-3.131,0-6.069-0.896-8.279-2.529l-0.528-0.39v-8.134h3.624v7.002     c1.45,0.898,3.264,1.388,5.183,1.388c0.004,0,0.004,0,0.004,0c1.923,0,3.741-0.489,5.193-1.388v-7.002h3.626v8.137l-0.53,0.391     C350.381,156.758,347.437,157.654,344.305,157.654z"/>
		</g>
		<g>
			<path fill="#414042" d="M358.317,157.654c-3.132,0-6.079-0.896-8.288-2.525l-0.533-0.391v-8.137h3.626v7.002     c1.454,0.898,3.273,1.388,5.195,1.388l0,0c1.924,0,3.741-0.489,5.191-1.388v-7.002h3.626v8.137l-0.527,0.391     c-2.212,1.629-5.158,2.525-8.286,2.525C358.317,157.654,358.317,157.654,358.317,157.654z"/>
		</g>
		<g>
			<path fill="#414042" d="M372.328,157.654c-3.13,0-6.072-0.896-8.288-2.525l-0.531-0.391v-8.137h3.626v7.002     c2.909,1.793,7.479,1.797,10.391,0v-7.002h3.623v8.137l-0.531,0.391C378.4,156.758,375.462,157.654,372.328,157.654z"/>
		</g>
		<g>
			<path fill="#414042" d="M386.343,157.654c-3.136,0-6.079-0.896-8.29-2.525l-0.526-0.391v-8.137h3.623v7.002     c2.902,1.795,7.483,1.795,10.387,0v-7.002h3.625v8.137l-0.53,0.391C392.42,156.758,389.476,157.654,386.343,157.654z"/>
		</g>
		<g>
			<path fill="#414042" d="M400.348,157.654c-3.126,0-6.074-0.896-8.285-2.525l-0.526-0.391v-8.137h3.625v7.002     c1.449,0.898,3.27,1.388,5.187,1.388c0.005,0,0.005,0,0.005,0c1.92,0,3.735-0.489,5.187-1.388v-7.002h3.623v8.137l-0.526,0.387     c-2.212,1.633-5.149,2.529-8.283,2.529C400.353,157.654,400.353,157.654,400.348,157.654z"/>
		</g>
		<g>
			<polygon fill="#414042" points="265.132,131.877 267.866,133.948 253.785,148.482 251.506,146.411    "/>
		</g>
		<g>
			<polygon fill="#414042" points="394.905,131.868 408.588,146.403 406.308,148.477 392.17,133.938    "/>
		</g>
		<g>
			<polygon fill="#414042" points="268.198,148.393 265.643,146.503 276.663,131.966 279.73,133.853    "/>
		</g>
		<g>
			<polygon fill="#414042" points="282.662,148.158 279.844,146.482 288.856,132.073 292.235,133.747    "/>
		</g>
		<g>
			<polygon fill="#414042" points="296.845,147.977 293.688,146.665 299.714,132.254 303.502,133.565    "/>
		</g>
		<g>
			<polygon fill="#414042" points="310.99,147.759 307.572,146.881 311.26,132.47 315.361,133.349    "/>
		</g>
		<g>
			<polygon fill="#414042" points="325.08,147.495 321.487,147.146 322.874,132.736 327.186,133.085    "/>
		</g>
		<g>
			<polygon fill="#414042" points="384.985,131.996 395.006,146.533 392.399,148.387 381.86,133.848    "/>
		</g>
		<g>
			<polygon fill="#414042" points="378.166,147.95 369.367,133.737 372.771,132.082 381.003,146.295    "/>
		</g>
		<g>
			<polygon fill="#414042" points="363.996,147.95 358.091,133.54 361.92,132.282 367.188,146.688    "/>
		</g>
		<g>
			<polygon fill="#414042" points="350.373,132.517 353.039,146.73 349.577,147.523 346.222,133.309    "/>
		</g>
		<g>
			<polygon fill="#414042" points="335.502,147.118 334.422,133.032 338.751,132.788 339.109,146.873    "/>
		</g>
	</g>
	<rect x="266.928" y="109.847" fill="#FFFFFF" width="126.42" height="22.993"/>
	<g>
		<path fill="#414042" d="M395.309,135.008h-130.32v-25.787h130.32V135.008L395.309,135.008z M269.248,130.748h121.801v-17.267    H269.248V130.748z"/>
	</g>
	<rect x="268.641" y="112.874" fill="#FFFFFF" width="123.015" height="18.485"/>
	<g>
		<path fill="#414042" d="M315.088,118.976c-0.425-0.71-1.59-1.376-2.933-1.376c-1.73,0-2.554,0.724-2.554,1.641    c0,1.077,1.268,1.375,2.745,1.552c2.579,0.316,4.979,0.989,4.979,3.932c0,2.754-2.437,3.934-5.188,3.934    c-2.522,0-4.455-0.781-5.382-3.032l1.942-1.008c0.55,1.363,1.973,1.956,3.475,1.956c1.467,0,2.841-0.506,2.841-1.851    c0-1.161-1.218-1.644-2.857-1.813c-2.522-0.297-4.85-0.976-4.85-3.736c0-2.545,2.508-3.586,4.779-3.601    c1.925,0,3.918,0.545,4.852,2.449L315.088,118.976z"/>
		<path fill="#414042" d="M327.53,128.36v-4.991h-6.065v4.991h-2.331v-12.346h2.331v5.205h6.065v-5.205h2.312v12.346H327.53z"/>
		<path fill="#414042" d="M344.152,122.236c-0.034,3.194-1.994,6.39-6.328,6.39c-4.344,0-6.351-3.125-6.351-6.366    c0-3.25,2.077-6.513,6.351-6.513C342.072,115.747,344.185,119.009,344.152,122.236z M333.765,122.296    c0.055,2.025,1.15,4.195,4.063,4.195c2.905,0,3.995-2.188,4.034-4.216c0.031-2.08-1.129-4.409-4.034-4.409    C334.915,117.866,333.711,120.212,333.765,122.296z"/>
		<path fill="#414042" d="M351.678,124.708h-3.488v3.636h-2.333v-12.352c1.939,0,3.878-0.01,5.821-0.01    C357.707,115.981,357.726,124.708,351.678,124.708z M348.188,122.579h3.49c2.979,0,2.963-4.384,0-4.384h-3.49V122.579z"/>
	</g>
	<circle opacity="0.5" fill="#414042" cx="282.675" cy="96.785" r="4.158"/>
	<circle opacity="0.5" fill="#414042" cx="296.323" cy="96.785" r="4.158"/>
	<circle opacity="0.5" fill="#414042" cx="309.97" cy="96.784" r="4.157"/>
</g>
<g>
	<g>
		<path fill="#FFFFFF" d="M414.57,241.315c0,5.754,4.665,10.418,10.419,10.418h34.732v-4.63h-34.732    c-3.196,0-5.787-2.592-5.787-5.788c0-3.198,2.591-5.79,5.787-5.79h40.521c3.231,0,6.013-1.894,7.313-4.631h-47.835    C419.236,230.896,414.57,235.561,414.57,241.315z"/>
	</g>
	<g>
		<path fill="#FFFFFF" d="M473.615,205.426h-49.782l-3.474-9.262h-11.577v4.632h6.947l9.26,31.008h47.835    c0.501-1.053,0.791-3.136,0.791-4.381V205.426L473.615,205.426z"/>
	</g>
	<g>
		<g>
			<path fill="#414042" d="M459.723,252.893h-34.733c-6.382,0-11.575-5.194-11.575-11.577c0-5.863,4.38-10.721,10.039-11.476     l-8.58-27.888h-7.248v-6.945h13.536l3.473,9.262h50.139v23.153c0,5.106-4.155,9.262-9.262,9.262h-40.521     c-2.552,0-4.63,2.078-4.63,4.632s2.078,4.629,4.63,4.629h34.733v2.317h-34.733c-3.829,0-6.945-3.117-6.945-6.946     c0-3.832,3.116-6.946,6.945-6.946h40.521c3.831,0,6.946-3.116,6.946-6.947v-20.839h-49.426l-3.474-9.262h-9.617v2.315h6.644     l9.974,32.417h-1.568c-5.105,0-9.26,4.155-9.26,9.262s4.154,9.262,9.26,9.262h34.732L459.723,252.893L459.723,252.893z"/>
		</g>
	</g>
	<g>
		<circle fill="#ACF0F2" cx="466.67" cy="249.419" r="6.947"/>
	</g>
	<g>
		<path fill="#414042" d="M466.67,257.522c-4.469,0-8.105-3.636-8.105-8.104c0-4.468,3.636-8.103,8.105-8.103    c4.467,0,8.103,3.635,8.103,8.103C474.772,253.887,471.137,257.522,466.67,257.522z M466.67,243.632    c-3.193,0-5.789,2.596-5.789,5.788c0,3.191,2.596,5.787,5.789,5.787c3.191,0,5.787-2.597,5.787-5.787    C472.457,246.228,469.86,243.632,466.67,243.632z"/>
	</g>
	<g>
		<circle fill="#ACF0F2" cx="431.937" cy="249.419" r="6.947"/>
	</g>
	<g>
		<path fill="#414042" d="M431.937,257.522c-4.469,0-8.104-3.636-8.104-8.104c0-4.468,3.636-8.103,8.104-8.103    s8.104,3.635,8.104,8.103C440.041,253.887,436.405,257.522,431.937,257.522z M431.937,243.632c-3.191,0-5.788,2.596-5.788,5.788    c0,3.191,2.597,5.787,5.788,5.787s5.788-2.597,5.788-5.787C437.725,246.228,435.128,243.632,431.937,243.632z"/>
	</g>
	<g>
		<rect x="430.777" y="248.262" fill="#4D5152" width="2.316" height="2.315"/>
	</g>
	<g>
		<rect x="465.511" y="248.262" fill="#4D5152" width="2.316" height="2.315"/>
	</g>
	<g>
		<g>
			<rect x="430.777" y="211.216" fill="#4D5152" width="5.789" height="2.315"/>
		</g>
		<g>
			<rect x="441.199" y="211.216" fill="#4D5152" width="5.788" height="2.315"/>
		</g>
		<g>
			<rect x="451.619" y="211.216" fill="#4D5152" width="5.789" height="2.315"/>
		</g>
		<g>
			<rect x="462.038" y="211.216" fill="#4D5152" width="5.789" height="2.315"/>
		</g>
		<g>
			<rect x="430.777" y="217.004" fill="#4D5152" width="5.789" height="2.316"/>
		</g>
		<g>
			<rect x="441.199" y="217.004" fill="#4D5152" width="5.788" height="2.316"/>
		</g>
		<g>
			<rect x="451.619" y="217.004" fill="#4D5152" width="5.789" height="2.316"/>
		</g>
		<g>
			<rect x="462.038" y="217.004" fill="#4D5152" width="5.789" height="2.316"/>
		</g>
		<g>
			<rect x="430.777" y="222.792" fill="#4D5152" width="5.789" height="2.316"/>
		</g>
		<g>
			<rect x="441.199" y="222.792" fill="#4D5152" width="5.788" height="2.316"/>
		</g>
		<g>
			<rect x="451.619" y="222.792" fill="#4D5152" width="5.789" height="2.316"/>
		</g>
		<g>
			<rect x="462.038" y="222.792" fill="#4D5152" width="5.789" height="2.316"/>
		</g>
	</g>
</g>
<g opacity="0.5">
	<g>
		<path fill="#3B443B" d="M525.598,146.251h-54.18c-0.949,0-1.71-0.527-1.71-1.189c0-0.66,0.76-1.192,1.71-1.192h54.18    c0.937,0,1.691,0.532,1.691,1.192C527.289,145.724,526.533,146.251,525.598,146.251z"/>
	</g>
	<g>
		<path fill="#3B443B" d="M154.301,168.218h-17.575c-0.686,0-1.236-0.526-1.236-1.192c0-0.655,0.551-1.189,1.236-1.189h17.575    c0.678,0,1.225,0.534,1.225,1.189C155.529,167.688,154.98,168.218,154.301,168.218z"/>
	</g>
	<g>
		<path fill="#3B443B" d="M387.439,72.379h-18.02c-1.027,0-1.854-0.529-1.854-1.189c0-0.658,0.826-1.192,1.854-1.192h18.02    c1.016,0,1.84,0.534,1.84,1.192C389.279,71.852,388.458,72.379,387.439,72.379z"/>
	</g>
	<g>
		<path fill="#3B443B" d="M543.424,208.042h-49.42c-0.861,0-1.558-0.527-1.558-1.188s0.696-1.192,1.558-1.192h49.42    c0.858,0,1.547,0.531,1.547,1.192S544.28,208.042,543.424,208.042z"/>
	</g>
	<g>
		<path fill="#3B443B" d="M529.499,218.354h-35.92c-0.626,0-1.133-0.526-1.133-1.188c0-0.66,0.506-1.191,1.133-1.191h35.92    c0.622,0,1.124,0.531,1.124,1.191C530.623,217.824,530.121,218.354,529.499,218.354z"/>
	</g>
	<g>
		<path fill="#3B443B" d="M513.773,230.449h-20.678c-0.363,0-0.651-0.527-0.651-1.188s0.291-1.193,0.651-1.193h20.678    c0.355,0,0.649,0.532,0.649,1.193S514.134,230.449,513.773,230.449z"/>
	</g>
	<g>
		<path fill="#3B443B" d="M251.294,68.024h20.82c0.366,0,0.658-0.53,0.658-1.189c0-0.658-0.292-1.191-0.658-1.191h-20.818    c-0.359,0-0.652,0.534-0.652,1.191C250.644,67.495,250.937,68.024,251.294,68.024z"/>
	</g>
	<g>
		<path fill="#3B443B" d="M443.846,98.561h-28.368c-0.498,0-0.895-0.53-0.895-1.19c0-0.658,0.398-1.194,0.895-1.194h28.368    c0.491,0,0.889,0.535,0.889,1.194C444.733,98.029,444.336,98.561,443.846,98.561z"/>
	</g>
	<g>
		<path fill="#3B443B" d="M464.01,87.162h22.074c0.387,0,0.698-0.53,0.698-1.19c0-0.656-0.311-1.194-0.698-1.194H464.01    c-0.383,0-0.69,0.538-0.69,1.194C463.319,86.629,463.629,87.162,464.01,87.162z"/>
	</g>
	<g>
		<path fill="#3B443B" d="M122.738,172.286l5.225-5.264l-5.225-5.259l-5.226,5.259L122.738,172.286z M124.384,167.023l-1.646,1.662    l-1.647-1.662l1.647-1.654L124.384,167.023z"/>
	</g>
	<g>
		<path fill="#3B443B" d="M541.177,182.575l5.223-5.264l-5.223-5.256l-5.227,5.256L541.177,182.575z M542.823,177.312l-1.646,1.662    l-1.648-1.662l1.648-1.655L542.823,177.312z"/>
	</g>
	<g>
		<path fill="#3B443B" d="M134.978,138.128l5.222-5.265l-5.222-5.255l-5.222,5.255L134.978,138.128z M136.627,132.863l-1.647,1.663    l-1.647-1.663l1.647-1.654L136.627,132.863z"/>
	</g>
	<g>
		<path fill="#3B443B" d="M415.729,60.095c2.392,0,4.336-1.957,4.336-4.359c0-2.412-1.944-4.368-4.336-4.368    c-2.39,0-4.333,1.956-4.333,4.368C411.396,58.138,413.339,60.095,415.729,60.095z M415.729,53.094c1.443,0,2.625,1.182,2.625,2.64    c0,1.454-1.181,2.639-2.625,2.639c-1.449,0-2.624-1.183-2.624-2.639C413.103,54.277,414.282,53.094,415.729,53.094z"/>
	</g>
	<g>
		<path fill="#3B443B" d="M217.099,103.018c2.39,0,4.335-1.955,4.335-4.359c0-2.412-1.945-4.369-4.335-4.369    c-2.391,0-4.333,1.956-4.333,4.369C212.767,101.06,214.709,103.018,217.099,103.018z M217.099,96.015    c1.44,0,2.623,1.182,2.623,2.642c0,1.454-1.182,2.637-2.623,2.637c-1.448,0-2.625-1.183-2.625-2.637    C214.473,97.198,215.653,96.015,217.099,96.015z"/>
	</g>
	<g>
		<path fill="#3B443B" d="M280.597,47.784c4.69,0,8.509-3.843,8.509-8.553c0-4.734-3.824-8.573-8.509-8.573    c-4.691,0-8.504,3.843-8.504,8.573C272.092,43.945,275.907,47.784,280.597,47.784z M280.597,34.055    c2.836,0,5.149,2.324,5.149,5.177c0,2.852-2.317,5.172-5.149,5.172c-2.838,0-5.147-2.32-5.147-5.172    C275.45,36.378,277.763,34.055,280.597,34.055z"/>
	</g>
	<g>
		<path fill="#3B443B" d="M244.015,64.56h-3.116v-3.274h-2.25v3.274h-3.137v2.127h3.137v3.311h2.25v-3.311h3.116V64.56z"/>
	</g>
	<g>
		<path fill="#3B443B" d="M401.929,70.109h-3.114v-3.275h-2.252v3.275h-3.136v2.124h3.136v3.31h2.252v-3.31h3.114V70.109z"/>
	</g>
	<g>
		<path fill="#3B443B" d="M315.159,42.888h-3.493v-3.667h-2.521v3.667h-3.511v2.386h3.511v3.711h2.521v-3.711h3.493V42.888z"/>
	</g>
	<g>
		<path fill="#3B443B" d="M459.35,84.752h-3.492v-3.668h-2.523v3.668h-3.513v2.385h3.513v3.711h2.523v-3.711h3.492V84.752    L459.35,84.752z"/>
	</g>
	<g>
		<path fill="#3B443B" d="M209.639,76.628h-2.19v-2.301h-1.585v2.301h-2.207v1.499h2.207v2.33h1.585v-2.33h2.19V76.628z"/>
	</g>
	<g>
		<rect x="161.483" y="220.676" fill="#3B443B" width="2.368" height="2.382"/>
		<rect x="156.491" y="220.676" fill="#3B443B" width="2.367" height="2.382"/>
		<rect x="151.501" y="220.676" fill="#3B443B" width="2.365" height="2.382"/>
		<rect x="146.507" y="220.676" fill="#3B443B" width="2.367" height="2.382"/>
		<rect x="141.511" y="220.676" fill="#3B443B" width="2.369" height="2.382"/>
		<rect x="136.52" y="220.676" fill="#3B443B" width="2.366" height="2.382"/>
		<rect x="131.527" y="220.676" fill="#3B443B" width="2.367" height="2.382"/>
		<rect x="126.534" y="220.676" fill="#3B443B" width="2.367" height="2.382"/>
		<rect x="121.537" y="220.676" fill="#3B443B" width="2.369" height="2.382"/>
		<rect x="116.547" y="220.676" fill="#3B443B" width="2.366" height="2.382"/>
	</g>
	<g>
		<rect x="204.22" y="97.462" fill="#3B443B" width="2.369" height="2.383"/>
		<rect x="199.229" y="97.462" fill="#3B443B" width="2.368" height="2.383"/>
		<rect x="194.236" y="97.462" fill="#3B443B" width="2.367" height="2.383"/>
		<rect x="189.242" y="97.462" fill="#3B443B" width="2.366" height="2.383"/>
		<rect x="184.248" y="97.462" fill="#3B443B" width="2.368" height="2.383"/>
	</g>
	<g>
		<rect x="365.2" y="48.986" fill="#3B443B" width="2.365" height="2.382"/>
		<rect x="360.205" y="48.986" fill="#3B443B" width="2.369" height="2.382"/>
		<rect x="355.215" y="48.986" fill="#3B443B" width="2.367" height="2.382"/>
		<rect x="350.219" y="48.986" fill="#3B443B" width="2.368" height="2.382"/>
		<rect x="345.229" y="48.986" fill="#3B443B" width="2.365" height="2.382"/>
		<rect x="340.231" y="48.986" fill="#3B443B" width="2.369" height="2.382"/>
	</g>
	<g>
		<rect x="493.489" y="180.082" fill="#3B443B" width="2.369" height="2.386"/>
		<rect x="488.498" y="180.082" fill="#3B443B" width="2.367" height="2.386"/>
		<rect x="483.506" y="180.082" fill="#3B443B" width="2.368" height="2.386"/>
		<rect x="478.513" y="180.082" fill="#3B443B" width="2.366" height="2.386"/>
		<rect x="473.517" y="180.082" fill="#3B443B" width="2.368" height="2.386"/>
		<rect x="468.523" y="180.082" fill="#3B443B" width="2.369" height="2.386"/>
		<rect x="463.532" y="180.082" fill="#3B443B" width="2.367" height="2.386"/>
		<rect x="458.539" y="180.082" fill="#3B443B" width="2.367" height="2.386"/>
		<rect x="453.546" y="180.082" fill="#3B443B" width="2.367" height="2.386"/>
		<rect x="448.552" y="180.082" fill="#3B443B" width="2.369" height="2.386"/>
	</g>
</g>
</svg>
